<?xml version="1.0" standalone="no"?>
<!DOCTYPE svg PUBLIC "-//W3C//DTD SVG 20010904//EN"
 "http://www.w3.org/TR/2001/REC-SVG-20010904/DTD/svg10.dtd">
<svg version="1.0" xmlns="http://www.w3.org/2000/svg"
 width="286.000000pt" height="284.000000pt" viewBox="0 0 286.000000 284.000000"
 preserveAspectRatio="xMidYMid meet">

<g transform="translate(0.000000,284.000000) scale(0.100000,-0.100000)"
fill="#000000" stroke="none">
<path d="M1260 2770 c-475 -66 -850 -331 -1059 -748 -119 -238 -172 -524 -143
-772 6 -45 12 -57 34 -69 21 -12 29 -13 42 -2 13 11 14 33 9 144 -6 153 7 282
42 414 30 108 82 236 128 313 31 51 36 55 78 60 29 4 65 19 102 43 170 113
399 169 599 147 117 -13 189 -32 201 -51 8 -12 -46 -126 -226 -475 -143 -278
-241 -458 -248 -456 -23 6 -59 -8 -59 -23 0 -9 10 -15 26 -15 20 0 25 -4 20
-16 -3 -9 -6 -18 -6 -20 0 -2 -9 -4 -21 -4 -12 0 -36 -15 -55 -34 -29 -29 -34
-41 -34 -79 0 -37 5 -51 31 -76 53 -53 144 -40 178 26 19 37 13 89 -13 120
-17 20 -22 34 -16 44 8 11 15 8 41 -17 69 -69 42 -186 -51 -227 -73 -32 -66
-72 7 -42 72 30 123 102 123 175 0 46 -31 111 -65 138 l-27 21 112 223 c62
123 116 228 120 233 4 6 56 106 115 223 60 116 114 212 121 212 6 0 28 -7 49
-16 38 -16 39 -18 20 -79 -5 -17 4 -25 49 -49 184 -95 352 -311 422 -542 24
-79 27 -106 28 -239 1 -166 -15 -248 -73 -377 -32 -73 -109 -194 -141 -223
-27 -25 -25 -37 9 -57 22 -12 33 -28 40 -60 27 -107 38 -117 185 -150 54 -12
60 -16 71 -48 29 -83 33 -74 -57 -113 -181 -77 -328 -107 -524 -107 -254 0
-502 69 -697 193 -60 39 -85 45 -105 25 -27 -27 -13 -55 44 -93 122 -81 315
-157 490 -192 133 -26 395 -24 530 5 200 43 374 116 532 224 109 74 276 244
350 356 160 240 226 464 226 762 0 296 -70 532 -230 772 -199 299 -502 502
-862 578 -111 24 -359 34 -462 20z m40 -261 c0 -25 -33 -22 -38 4 -2 12 3 17
17 17 15 0 21 -6 21 -21z m694 -121 c16 -26 -4 -53 -40 -53 -25 0 -30 4 -32
29 -6 46 47 63 72 24z m441 -320 c14 -6 28 -22 31 -35 16 -60 -27 -104 -83
-86 -50 17 -58 98 -11 121 30 14 33 14 63 0z m-370 -332 c19 -29 11 -54 -21
-62 -43 -11 -73 29 -48 64 20 29 50 28 69 -2z m508 -240 c8 -19 -15 -37 -32
-26 -17 10 -7 40 13 40 7 0 16 -6 19 -14z m-78 -440 c21 -31 5 -66 -28 -66
-62 0 -62 88 0 90 7 0 20 -11 28 -24z m-467 -198 c-6 -18 -28 -21 -28 -4 0 9
7 16 16 16 9 0 14 -5 12 -12z m77 -153 c0 -27 -3 -30 -30 -30 -21 0 -31 5 -33
18 -6 33 6 49 35 45 24 -3 28 -8 28 -33z"/>
<path d="M1375 1940 c3 -5 0 -8 -7 -5 -9 4 -70 -101 -185 -320 l-172 -325 25
-51 c36 -71 36 -150 -1 -225 -25 -50 -55 -80 -119 -119 -13 -8 56 -35 305
-120 357 -122 412 -137 443 -125 17 7 18 9 4 9 -10 1 -18 8 -18 17 0 10 5 14
15 10 13 -5 14 -2 4 15 -6 11 -8 23 -5 27 3 3 6 0 6 -7 0 -7 4 -10 9 -7 5 4
12 0 14 -6 4 -10 6 -10 6 0 1 7 5 11 10 7 16 -9 41 37 34 63 -4 19 -3 23 7 17
10 -6 12 -4 7 8 -7 18 25 42 37 29 4 -3 4 2 0 12 -5 14 -4 17 5 11 10 -6 11
-2 6 16 -4 13 -12 30 -17 36 -11 14 -28 8 -28 -8 0 -6 4 -8 9 -5 12 8 22 -20
14 -40 -5 -12 -9 -9 -19 14 -17 41 -15 131 3 161 11 17 12 25 4 31 -7 3 -9 14
-6 22 4 9 2 19 -4 23 -6 3 -11 13 -11 21 0 8 4 13 8 10 5 -3 16 11 25 30 18
37 23 58 7 34 -5 -8 -13 -11 -17 -6 -4 4 0 13 10 20 9 7 17 18 17 25 0 6 4 11
8 11 10 0 9 -47 -2 -77 -4 -13 -12 -23 -18 -23 -6 0 -3 -9 6 -19 10 -10 13
-22 8 -25 -12 -7 -3 -56 10 -56 6 0 8 13 4 31 -5 27 -4 29 10 14 9 -8 20 -13
25 -9 6 3 7 -4 4 -19 -4 -14 -3 -27 2 -30 10 -6 11 58 1 69 -5 4 -8 1 -8 -6 0
-9 -6 -8 -20 5 -20 19 -22 67 -2 87 6 6 8 17 5 26 -4 10 -2 13 5 8 7 -4 12 -2
12 3 0 6 -4 11 -10 11 -5 0 -10 4 -10 9 0 10 19 9 37 -2 7 -5 9 -1 6 12 -3 12
-11 17 -19 14 -10 -4 -12 0 -8 13 4 11 11 24 16 30 5 7 3 17 -5 26 -8 7 -14
29 -15 48 -1 24 2 30 8 20 6 -8 10 -10 10 -4 0 6 -6 17 -14 23 -11 9 -15 9
-19 -1 -3 -7 -3 3 0 23 4 30 1 39 -17 52 -13 9 -19 20 -15 27 6 9 10 9 16 -1
5 -8 9 -9 9 -3 0 5 -6 19 -14 29 -12 16 -16 17 -29 6 -14 -11 -15 -9 -11 15 3
16 2 25 -2 21 -10 -9 -35 63 -27 76 3 6 1 7 -5 3 -6 -3 -16 3 -22 14 -6 11 -9
20 -6 20 3 0 -11 16 -30 36 -19 20 -34 41 -34 45 0 5 -5 9 -12 9 -6 0 -3 -9 7
-20 17 -19 17 -20 1 -20 -9 0 -15 4 -11 9 3 5 0 13 -6 16 -5 4 -8 14 -5 22 3
8 1 11 -4 8 -12 -8 -42 20 -32 29 3 4 -2 4 -11 0 -11 -4 -26 1 -38 12 -12 11
-23 18 -25 17 -2 -2 -7 -3 -11 -3 -5 0 -1 5 7 10 11 7 11 10 2 10 -7 0 -10 5
-7 10 3 6 1 10 -4 10 -6 0 -11 -7 -11 -16 0 -14 -3 -14 -15 -4 -13 11 -13 15
-3 22 8 6 4 7 -11 3 -19 -6 -23 -4 -18 9 3 8 2 18 -3 21 -6 4 -10 1 -10 -5 0
-7 -6 -8 -19 0 -25 13 -34 13 -26 0z m200 -120 c3 -5 2 -10 -4 -10 -5 0 -13 5
-16 10 -3 6 -2 10 4 10 5 0 13 -4 16 -10z m-68 -66 c17 -27 10 -44 -18 -44
-34 0 -59 19 -59 45 0 41 50 40 77 -1z m169 -28 c16 -17 18 -26 4 -26 -5 0
-14 9 -20 20 -12 23 -5 26 16 6z m-281 -46 c0 -22 -29 -18 -33 3 -3 14 1 18
15 15 10 -2 18 -10 18 -18z m331 -32 c23 -45 12 -43 -15 4 -12 22 -18 37 -12
34 6 -4 18 -21 27 -38z m-71 -318 c8 -16 15 -40 15 -53 0 -47 -48 -58 -70 -16
-11 20 -13 82 -3 92 15 16 44 5 58 -23z m-304 -121 c7 -14 8 -24 1 -31 -15
-15 -32 0 -32 28 0 30 15 31 31 3z m392 -294 c-3 -9 -8 -14 -10 -11 -3 3 -2 9
2 15 9 16 15 13 8 -4z m-7 -105 c-11 -68 -19 -70 -21 -4 -1 27 1 40 6 32 6 -8
9 -1 9 22 0 21 3 30 8 23 5 -7 4 -40 -2 -73z m-12 -82 c-3 -5 -12 -5 -43 1 -2
1 2 7 8 14 6 8 10 16 8 18 -1 2 5 -3 14 -11 9 -8 15 -18 13 -22z"/>
<path d="M1520 1881 c0 -13 28 -33 33 -23 3 4 -3 13 -14 20 -10 7 -19 8 -19 3z"/>
<path d="M653 1242 c-20 -13 -46 -83 -34 -95 15 -15 34 4 50 48 13 38 6 60
-16 47z"/>
<path d="M1850 1201 c0 -5 7 -15 17 -22 15 -13 15 -12 4 9 -12 23 -21 28 -21
13z"/>
<path d="M616 1111 c-9 -14 15 -71 30 -71 15 0 18 21 8 58 -6 22 -28 30 -38
13z"/>
<path d="M128 1039 c-25 -14 -23 -37 13 -126 39 -99 104 -218 167 -308 67 -95
170 -205 191 -205 20 0 51 30 51 48 0 7 -29 44 -65 83 -119 129 -204 265 -264
423 -37 95 -52 109 -93 85z"/>
<path d="M1814 1026 c-3 -9 -10 -13 -15 -10 -5 3 -9 0 -9 -6 0 -6 -4 -8 -10
-5 -17 10 -11 -9 11 -35 l21 -25 -6 25 c-3 15 1 31 11 42 9 10 13 21 10 24 -4
4 -9 -1 -13 -10z"/>
<path d="M677 1006 c-11 -28 52 -62 68 -37 5 9 -40 51 -55 51 -4 0 -10 -6 -13
-14z"/>
<path d="M1845 979 c-4 -6 -5 -12 -2 -15 2 -3 7 2 10 11 7 17 1 20 -8 4z"/>
<path d="M1801 915 c0 -5 3 -16 8 -23 7 -11 9 -10 14 3 4 9 3 14 -2 10 -5 -3
-12 1 -14 7 -3 7 -6 9 -6 3z"/>
<path d="M984 659 c3 -17 6 -35 6 -39 0 -5 34 -20 75 -33 l75 -26 0 33 c0 41
-11 51 -85 76 -76 26 -79 26 -71 -11z"/>
<path d="M1185 583 c4 -21 8 -39 9 -40 4 -4 488 -173 496 -173 6 0 10 11 10
25 0 15 -6 25 -14 25 -9 0 -13 7 -11 19 3 15 -1 18 -12 14 -9 -4 -21 0 -27 8
-10 14 -418 159 -446 159 -9 0 -10 -11 -5 -37z m505 -188 c0 -8 -5 -15 -11
-15 -5 0 -7 5 -3 11 4 8 -1 9 -17 4 -19 -5 -21 -4 -9 4 22 15 40 13 40 -4z"/>
</g>
</svg>
